<svg xmlns="http://www.w3.org/2000/svg" viewBox="0 0 91 113.75" x="0px" y="0px"><path d="M17.75,57.5c-2.25,1.94-4.38,3.92-6.45,5.97-.37,.37-.73,.76-1.23,.98-.27,.12-.54,.18-.8-.03-.3-.25-.27-.57-.15-.89,.2-.51,.61-.85,1-1.21,2.06-1.89,4.12-3.79,6.31-5.54,.49-.39,.63-.69,.33-1.3-.98-1.96-1.27-4.1-1.29-6.26-.01-1.11-.14-1.02-1.11-1.02-3.92,.02-7.74,.67-11.53,1.6-.47,.12-.96,.18-1.44,.22-.4,.03-.73-.13-.82-.56-.08-.38,.16-.6,.46-.77,.79-.43,1.62-.74,2.49-.95,3.45-.83,6.96-1.11,10.49-1.18,.28,0,.57-.02,.85,0,.55,.05,.78-.14,.84-.73,.13-1.21,.29-2.42,.55-3.6,.14-.64-.1-.86-.61-1.08-2.38-1.02-4.75-2.07-7.13-3.1-1.34-.58-2.67-1.16-4.01-1.75-.3-.13-.58-.29-.86-.46-.26-.16-.44-.38-.31-.71,.15-.35,.43-.49,.79-.36,.8,.28,1.62,.53,2.4,.86,3.09,1.32,6.15,2.73,9.17,4.21,.94,.46,.86,.4,1.43-.41,.64-.91,.67-1.77,.46-2.83-.56-2.69-.38-5.41-.13-8.12,.19-2.02,.47-4.02,1.1-5.97,.35-1.09,.85-2.11,1.63-2.96,2.15-2.32,5.33-2,6.98,.7,.45,.73,.77,1.52,1.09,2.31,.79,1.99,1.61,3.98,2.35,6,.63,1.73,1.81,2.75,3.6,3.07,3.59,.64,7.2,1.16,10.86,1.32,.81,.03,1.38-.26,1.88-.89,.94-1.18,1.66-2.5,2.41-3.79,1-1.72,1.92-3.48,3.08-5.09,1.34-1.87,2.96-3.45,5.01-4.52,1.81-.94,3.71-1.36,5.76-.87,1.37,.33,2.19,1.16,2.53,2.5,.23,.91,.31,1.83,.32,2.77,.03,3.49-.13,6.97-.26,10.46-.04,.99,.13,1.75,.9,2.47,1.19,1.1,2.02,2.51,2.83,3.88,.49-.09,.82-.35,1.17-.55,3.7-2.1,7.54-3.95,11.47-5.59,.3-.12,.6-.25,.92-.31,.41-.08,.72,.12,.89,.48,.18,.38,.09,.74-.25,.97-.29,.21-.63,.35-.97,.49-3.91,1.68-7.74,3.54-11.47,5.59-.95,.52-.96,.53-.57,1.56,.4,1.06,.75,2.15,.92,3.27,.09,.62,.32,.84,.96,.71,2.38-.49,4.8-.79,7.22-1.04,3.11-.32,6.23-.44,9.35-.38,.2,0,.41,0,.6,.05,.35,.1,.54,.35,.55,.71,0,.36-.15,.65-.51,.73-.31,.08-.64,.11-.96,.11-4.22,.06-8.43,.31-12.62,.85-1.17,.15-2.33,.34-3.49,.5-.49,.07-.83,.21-.81,.82,.1,2.82-.78,5.34-2.35,7.65-.06,.09-.07,.22-.13,.4,2.42,1.05,4.79,2.18,7.13,3.38,.47,.24,.95,.47,1.31,.86,.17,.18,.31,.39,.2,.65-.13,.31-.41,.36-.71,.33-.5-.05-.9-.34-1.33-.58-2.19-1.24-4.44-2.36-6.73-3.39-.5-.23-.85-.28-1.28,.17-3.56,3.74-8.06,5.77-12.99,6.97-3.81,.93-7.69,1.18-11.59,1.19-4.14,.01-8.28-.11-12.34-.98-4.44-.96-8.48-2.73-11.68-6.08-.58-.61-1.1-1.28-1.68-1.96Zm.65-2.53c.36,.03,.53-.17,.72-.31,.62-.46,1.23-.93,1.86-1.37,.34-.24,.75-.78,1.14-.31,.46,.56-.25,.82-.56,1.12-.56,.53-1.17,1.01-1.74,1.52-.73,.66-.73,.67-.12,1.47,1.73,2.29,4,3.89,6.6,5.04,2.88,1.28,5.93,1.91,9.05,2.22,3.84,.38,7.69,.42,11.54,.26,3.25-.14,6.46-.57,9.58-1.5,3.17-.95,6.12-2.37,8.7-4.47,.55-.44,1.08-.9,1.58-1.57-1.57-.61-3-1.17-4.44-1.73-.3-.12-.61-.21-.9-.36-.18-.09-.3-.28-.2-.51,.09-.21,.27-.3,.49-.24,.28,.06,.55,.14,.82,.23,1.38,.47,2.76,.94,4.14,1.41,.97,.33,.97,.34,1.56-.53,.89-1.33,1.52-2.76,1.77-4.36,.12-.79,.27-1.57,.06-2.39-2.39,.42-4.67,.96-6.94,1.53-.31,.08-.63,.17-.95,.21-.31,.05-.57-.08-.68-.39-.12-.32,.04-.56,.32-.7,.21-.11,.45-.18,.68-.25,1.13-.33,2.25-.67,3.39-.97,1.17-.32,2.35-.6,3.54-.88,.36-.09,.61-.2,.53-.63-.26-1.39-.6-2.74-1.28-4.04-2.61,1.45-5.06,2.95-7.5,4.48-.37,.23-.85,.77-1.23,.14-.31-.53,.34-.74,.65-.99,2.07-1.64,4.24-3.13,6.45-4.56,.3-.19,.67-.3,.85-.71-1.21-2.16-2.69-4.11-4.79-5.54-.83-.56-.98-.88-.77-1.44,.22-.58,.53-.7,1.5-.63,.07,0,.14-.04,.25-.07,.24-3.54,.33-7.1,.21-10.67-.02-.56-.13-1.13-.23-1.68-.13-.7-.53-1.15-1.25-1.32-.81-.2-1.6-.19-2.41-.02-2.55,.54-4.45,2.06-6.04,4.04-1.12,1.4-1.99,2.95-2.86,4.51-.96,1.74-1.93,3.47-3.08,5.09-.91,1.27-2.08,1.85-3.64,1.74-3.72-.26-7.42-.68-11.09-1.41-2.24-.44-3.83-1.63-4.67-3.8-.85-2.19-1.76-4.36-2.63-6.54-.3-.76-.61-1.5-1.13-2.14-.88-1.09-2.08-1.24-3.22-.4-.6,.45-1.01,1.05-1.3,1.73-.34,.78-.53,1.61-.73,2.44-.87,3.78-1,7.63-1.17,11.47-.02,.35-.12,.72,.07,1.05,.23,.06,.4-.07,.59-.12,.29-.07,.58-.07,.73,.25,.14,.28,.1,.56-.13,.78-.14,.14-.31,.26-.47,.39-.58,.48-.91,1.12-1.21,1.8-.25,.56-.11,.87,.45,1.15,1.42,.7,2.8,1.46,4.2,2.2,.25,.13,.5,.27,.74,.41,.21,.12,.45,.26,.33,.56-.13,.3-.39,.21-.62,.1-.55-.25-1.1-.52-1.66-.76-1.29-.56-2.54-1.24-3.92-1.71-.35,1.23-.48,2.43-.62,3.63-.06,.51,.11,.73,.65,.75,.97,.03,1.94,.1,2.91,.17,1.13,.08,2.26,.17,3.4,.26,.37,.03,.63,.22,.63,.6,0,.4-.28,.55-.65,.56-.32,0-.65,0-.97,0-1.78-.02-3.57-.04-5.35-.05-.42,0-.83-.01-.83,.6,0,2.17,.35,4.25,1.29,6.18Z"/><path d="M61.91,25.57c-.05,2.33-.52,4.58-1.32,6.76-.41,1.12-.71,1.29-1.89,1.32-1.63,.03-3.21-.37-4.83-.45-.55-.03-.77-.4-.73-.92,.02-.24,.1-.47,.17-.71,.91-3.29,2.81-5.89,5.57-7.88,.36-.26,.76-.48,1.18-.62,.95-.32,1.72,.17,1.84,1.16,.05,.44,0,.89,0,1.34Zm-4.77,2.1c.95-.49,1.78-1.12,2.72-1.59,.74-.37,.73-.38,.43-1.49-1.31,.81-2.38,1.78-3.16,3.08Zm.81,4.82c.64-.13,1.19,.24,1.42-.42,.33-.95,.71-1.91,.59-2.99-.63,1.07-1.26,2.14-2.01,3.41Zm-.14-2.78c-1.01,.63-1.89,1.39-2.55,2.5,.5,.03,.91,.39,1.24-.19,.43-.77,.87-1.54,1.31-2.31Z"/><path d="M25.7,34.39c-.32,0-.65,0-.97,0-.34,0-.58,.08-.81,.39-.95,1.27-2,1.14-2.58-.34-.79-2.01-.89-4.1-.47-6.22,.18-.92,.45-1.81,.89-2.64,.66-1.24,1.66-1.38,2.63-.34,1.83,1.98,3.06,4.28,3.61,6.92,.28,1.32,.26,2.4-1.93,2.24-.12,0-.24,0-.36,0,0,0,0-.01,0-.02Zm-3.13-3.46c.07-1.06,.25-2.08,.92-2.95,.49-.64,.48-.64-.28-1.19-.62,1.32-.88,2.69-.65,4.14Zm3.5,.44c-.03,.51-.12,1.08,.49,1.6,0-.66-.22-1.12-.49-1.6Z"/><path d="M39.56,57.06c.58,.06,.84-.3,1.18-.49,.46-.26,.89-.57,1.34-.83,.44-.25,.88-.25,1.17,.21,.28,.45-.02,.79-.36,1.03-1,.69-2.03,1.34-3.05,2-.46,.29-.94,.23-1.39-.02-1.07-.58-2.13-1.18-3.18-1.78-.44-.25-.67-.62-.38-1.11,.25-.43,.65-.43,1.06-.26,.74,.29,1.39,.8,2.27,.98,.09-1.33,.17-2.6,.26-3.88,.03-.34-.1-.54-.41-.64-.15-.05-.31-.09-.47-.14-1.56-.56-1.96-1.51-1.29-3.04,.59-1.34,1.64-2.08,3.07-2.27,.27-.04,.72-.11,.75,.19,.07,.75,.7,.81,1.14,1.1,.8,.51,1.43,1.16,1.28,2.17-.16,1.09-.82,1.83-1.91,2.14-1.22,.35-1.22,.34-1.19,1.66,.02,1,.06,1.99,.09,2.99Z"/><path d="M29.16,39.39c.9,0,1.57,.69,1.6,1.63,.02,.83-.66,1.51-1.54,1.53-.88,.02-1.61-.72-1.6-1.62,0-.85,.7-1.54,1.55-1.54Z"/><path d="M55.08,42.7c-.39,.02-.76-.13-1.08-.39-.39-.31-.51-.73-.42-1.2,.12-.67,.78-1.03,1.96-1.09,.63-.03,1.09,.29,1.28,.89,.3,.95-.52,1.82-1.74,1.79Z"/></svg>
