<svg xmlns="http://www.w3.org/2000/svg" data-name="Layer 2" viewBox="0 0 100 125" x="0px" y="0px"><title>Artboard 2</title><path d="M66,24.78C65.77,8.64,55.63,5,55.63,5c-4.42,6.33-5.26,14.33-5.38,18.33A20.28,20.28,0,0,0,45.83,25a25.23,25.23,0,0,0-7.49,5.9c-4.18-.58-12.57-1.54-18.89-.87,0,0,.36,10.22,13.07,16,1.2,12.14,5.87,16.28,11.59,18.7,6,2.52,13.45-.47,18,7.55S80.55,95,80.55,95V34.3A44.5,44.5,0,0,0,66,24.78ZM49.26,49.27c-4.1,7.37-8.51,2.42-9.63.95a.66.66,0,0,1,0-.76,9.18,9.18,0,0,1,2.91-2.94,8.27,8.27,0,0,0,1,2.35A8.17,8.17,0,0,0,45.46,51a.62.62,0,0,0,1-.63,8.37,8.37,0,0,0-1.1-2.7A8.48,8.48,0,0,0,44,46c2.55-.47,4.56,1.72,5.24,2.59A.65.65,0,0,1,49.26,49.27ZM59.6,42.84a.65.65,0,0,1-.61-.37c-.48-1-1.55-3.76,0-5.85a8.6,8.6,0,0,0,2.86,4.22.62.62,0,0,0,1-.63,8.34,8.34,0,0,0-1.09-2.7,8.79,8.79,0,0,0-1.66-1.94,9.14,9.14,0,0,1,3.93-1.31.64.64,0,0,1,.66.36C65.54,36.27,68,42.41,59.6,42.84Z"/></svg>
